<?xml version="1.0" encoding="UTF-8"?>
<!-- Do not edit this file with editors other than draw.io -->
<!DOCTYPE svg PUBLIC "-//W3C//DTD SVG 1.1//EN" "http://www.w3.org/Graphics/SVG/1.1/DTD/svg11.dtd">
<svg xmlns="http://www.w3.org/2000/svg" xmlns:xlink="http://www.w3.org/1999/xlink" version="1.1" width="62px" height="392px" viewBox="-0.5 -0.5 62 392" content="&lt;mxfile host=&quot;app.diagrams.net&quot; agent=&quot;Mozilla/5.0 (Windows NT 10.0; Win64; x64) AppleWebKit/537.36 (KHTML, like Gecko) Chrome/128.0.0.0 Safari/537.36 Edg/128.0.0.0&quot; version=&quot;24.7.7&quot; scale=&quot;1&quot; border=&quot;1&quot;&gt;&#10;  &lt;diagram name=&quot;Pagina-1&quot; id=&quot;TrevjAfDvx08_4-K54cX&quot;&gt;&#10;    &lt;mxGraphModel dx=&quot;834&quot; dy=&quot;529&quot; grid=&quot;1&quot; gridSize=&quot;10&quot; guides=&quot;1&quot; tooltips=&quot;1&quot; connect=&quot;1&quot; arrows=&quot;1&quot; fold=&quot;1&quot; page=&quot;1&quot; pageScale=&quot;1&quot; pageWidth=&quot;827&quot; pageHeight=&quot;1169&quot; math=&quot;0&quot; shadow=&quot;0&quot;&gt;&#10;      &lt;root&gt;&#10;        &lt;mxCell id=&quot;0&quot; /&gt;&#10;        &lt;mxCell id=&quot;1&quot; parent=&quot;0&quot; /&gt;&#10;        &lt;mxCell id=&quot;2&quot; value=&quot;&quot; style=&quot;verticalLabelPosition=bottom;verticalAlign=top;html=1;shape=mxgraph.basic.donut;dx=11;fillColor=#b5e853;strokeColor=none;&quot; vertex=&quot;1&quot; parent=&quot;1&quot;&gt;&#10;          &lt;mxGeometry x=&quot;430&quot; y=&quot;430&quot; width=&quot;60&quot; height=&quot;60&quot; as=&quot;geometry&quot; /&gt;&#10;        &lt;/mxCell&gt;&#10;        &lt;mxCell id=&quot;3&quot; value=&quot;&quot; style=&quot;verticalLabelPosition=bottom;verticalAlign=top;html=1;shape=mxgraph.basic.donut;dx=11;fillColor=#b5e853;strokeColor=none;&quot; vertex=&quot;1&quot; parent=&quot;1&quot;&gt;&#10;          &lt;mxGeometry x=&quot;430&quot; y=&quot;100&quot; width=&quot;60&quot; height=&quot;60&quot; as=&quot;geometry&quot; /&gt;&#10;        &lt;/mxCell&gt;&#10;        &lt;mxCell id=&quot;4&quot; value=&quot;&quot; style=&quot;html=1;shadow=0;dashed=0;align=center;verticalAlign=middle;shape=mxgraph.arrows2.arrow;dy=0;dx=30;notch=30;rotation=-90;strokeWidth=6;fillColor=none;strokeColor=#B5E853;&quot; vertex=&quot;1&quot; parent=&quot;1&quot;&gt;&#10;          &lt;mxGeometry x=&quot;455.86&quot; y=&quot;383.68&quot; width=&quot;8.27&quot; height=&quot;28.8&quot; as=&quot;geometry&quot; /&gt;&#10;        &lt;/mxCell&gt;&#10;        &lt;mxCell id=&quot;5&quot; value=&quot;&quot; style=&quot;html=1;shadow=0;dashed=0;align=center;verticalAlign=middle;shape=mxgraph.arrows2.arrow;dy=0;dx=30;notch=30;rotation=-90;strokeWidth=6;fillColor=none;strokeColor=#B5E853;&quot; vertex=&quot;1&quot; parent=&quot;1&quot;&gt;&#10;          &lt;mxGeometry x=&quot;455.86&quot; y=&quot;340.6&quot; width=&quot;8.27&quot; height=&quot;28.8&quot; as=&quot;geometry&quot; /&gt;&#10;        &lt;/mxCell&gt;&#10;        &lt;mxCell id=&quot;6&quot; value=&quot;&quot; style=&quot;html=1;shadow=0;dashed=0;align=center;verticalAlign=middle;shape=mxgraph.arrows2.arrow;dy=0;dx=30;notch=30;rotation=-90;strokeWidth=6;fillColor=none;strokeColor=#B5E853;&quot; vertex=&quot;1&quot; parent=&quot;1&quot;&gt;&#10;          &lt;mxGeometry x=&quot;455.87&quot; y=&quot;300.6&quot; width=&quot;8.27&quot; height=&quot;28.8&quot; as=&quot;geometry&quot; /&gt;&#10;        &lt;/mxCell&gt;&#10;        &lt;mxCell id=&quot;7&quot; value=&quot;&quot; style=&quot;html=1;shadow=0;dashed=0;align=center;verticalAlign=middle;shape=mxgraph.arrows2.arrow;dy=0;dx=30;notch=30;rotation=-90;strokeWidth=6;fillColor=none;strokeColor=#B5E853;&quot; vertex=&quot;1&quot; parent=&quot;1&quot;&gt;&#10;          &lt;mxGeometry x=&quot;455.86&quot; y=&quot;260.6&quot; width=&quot;8.27&quot; height=&quot;28.8&quot; as=&quot;geometry&quot; /&gt;&#10;        &lt;/mxCell&gt;&#10;        &lt;mxCell id=&quot;8&quot; value=&quot;&quot; style=&quot;html=1;shadow=0;dashed=0;align=center;verticalAlign=middle;shape=mxgraph.arrows2.arrow;dy=0;dx=30;notch=30;rotation=-90;strokeWidth=6;fillColor=none;strokeColor=#B5E853;&quot; vertex=&quot;1&quot; parent=&quot;1&quot;&gt;&#10;          &lt;mxGeometry x=&quot;455.86&quot; y=&quot;220.60000000000002&quot; width=&quot;8.27&quot; height=&quot;28.8&quot; as=&quot;geometry&quot; /&gt;&#10;        &lt;/mxCell&gt;&#10;        &lt;mxCell id=&quot;9&quot; value=&quot;&quot; style=&quot;html=1;shadow=0;dashed=0;align=center;verticalAlign=middle;shape=mxgraph.arrows2.arrow;dy=0;dx=30;notch=30;rotation=-90;strokeWidth=6;fillColor=none;strokeColor=#B5E853;&quot; vertex=&quot;1&quot; parent=&quot;1&quot;&gt;&#10;          &lt;mxGeometry x=&quot;455.86&quot; y=&quot;180.60000000000002&quot; width=&quot;8.27&quot; height=&quot;28.8&quot; as=&quot;geometry&quot; /&gt;&#10;        &lt;/mxCell&gt;&#10;      &lt;/root&gt;&#10;    &lt;/mxGraphModel&gt;&#10;  &lt;/diagram&gt;&#10;&lt;/mxfile&gt;&#10;"><defs/><g><g data-cell-id="0"><g data-cell-id="1"><g data-cell-id="VALj1CTO284NouVzQ2mJ-3"><g><path d="M 1 361 C 1 344.43 14.43 331 31 331 C 38.96 331 46.59 334.16 52.21 339.79 C 57.84 345.41 61 353.04 61 361 C 61 368.96 57.84 376.59 52.21 382.21 C 46.59 387.84 38.96 391 31 391 C 23.04 391 15.41 387.84 9.79 382.21 C 4.16 376.59 1 368.96 1 361 Z M 31 342 C 20.51 342 12 350.51 12 361 C 12 371.49 20.51 380 31 380 C 41.49 380 50 371.49 50 361 C 50 350.51 41.49 342 31 342 Z" fill="#b5e853" stroke="none" pointer-events="all"/></g></g><g data-cell-id="VALj1CTO284NouVzQ2mJ-6"/><g data-cell-id="VALj1CTO284NouVzQ2mJ-17"><g><path d="M 1 31 C 1 14.43 14.43 1 31 1 C 38.96 1 46.59 4.16 52.21 9.79 C 57.84 15.41 61 23.04 61 31 C 61 38.96 57.84 46.59 52.21 52.21 C 46.59 57.84 38.96 61 31 61 C 23.04 61 15.41 57.84 9.79 52.21 C 4.16 46.59 1 38.96 1 31 Z M 31 12 C 20.51 12 12 20.51 12 31 C 12 41.49 20.51 50 31 50 C 41.49 50 50 41.49 50 31 C 50 20.51 41.49 12 31 12 Z" fill="#b5e853" stroke="none" pointer-events="all"/></g></g><g data-cell-id="VALj1CTO284NouVzQ2mJ-19"><g><path d="M 26.86 284.68 L 26.86 284.68 L 26.86 284.68 L 35.13 299.08 L 26.86 313.48 L 26.86 313.48 L 26.86 313.48 L 35.13 299.08 Z" fill="none" stroke="#b5e853" stroke-width="6" stroke-miterlimit="10" transform="rotate(-90,31,299.08)" pointer-events="all"/></g></g><g data-cell-id="VALj1CTO284NouVzQ2mJ-20"><g><path d="M 26.86 241.6 L 26.86 241.6 L 26.86 241.6 L 35.13 256 L 26.86 270.4 L 26.86 270.4 L 26.86 270.4 L 35.13 256 Z" fill="none" stroke="#b5e853" stroke-width="6" stroke-miterlimit="10" transform="rotate(-90,31,256)" pointer-events="all"/></g></g><g data-cell-id="VALj1CTO284NouVzQ2mJ-21"><g><path d="M 26.87 201.6 L 26.87 201.6 L 26.87 201.6 L 35.14 216 L 26.87 230.4 L 26.87 230.4 L 26.87 230.4 L 35.14 216 Z" fill="none" stroke="#b5e853" stroke-width="6" stroke-miterlimit="10" transform="rotate(-90,31,216)" pointer-events="all"/></g></g><g data-cell-id="VALj1CTO284NouVzQ2mJ-22"><g><path d="M 26.86 161.6 L 26.86 161.6 L 26.86 161.6 L 35.13 176 L 26.86 190.4 L 26.86 190.4 L 26.86 190.4 L 35.13 176 Z" fill="none" stroke="#b5e853" stroke-width="6" stroke-miterlimit="10" transform="rotate(-90,31,176)" pointer-events="all"/></g></g><g data-cell-id="VALj1CTO284NouVzQ2mJ-23"><g><path d="M 26.86 121.6 L 26.86 121.6 L 26.86 121.6 L 35.13 136 L 26.86 150.4 L 26.86 150.4 L 26.86 150.4 L 35.13 136 Z" fill="none" stroke="#b5e853" stroke-width="6" stroke-miterlimit="10" transform="rotate(-90,31,136)" pointer-events="all"/></g></g><g data-cell-id="VALj1CTO284NouVzQ2mJ-24"><g><path d="M 26.86 81.6 L 26.86 81.6 L 26.86 81.6 L 35.13 96 L 26.86 110.4 L 26.86 110.4 L 26.86 110.4 L 35.13 96 Z" fill="none" stroke="#b5e853" stroke-width="6" stroke-miterlimit="10" transform="rotate(-90,31,96)" pointer-events="all"/></g></g></g></g></g></svg>